<?xml version="1.0" encoding="UTF-8"?>
<svg id="Layer_1" xmlns="http://www.w3.org/2000/svg" version="1.1" viewBox="0 0 216 115.2">
  <!-- Generator: Adobe Illustrator 29.5.1, SVG Export Plug-In . SVG Version: 2.1.0 Build 141)  -->
  <defs>
    <style>
      .st0 {
        fill: #2facff;
      }
    </style>
  </defs>
  <g id="Group">
    <g id="Group-2">
      <g id="Group-3">
        <g>
          <g>
            <path class="st0" d="M49.9,53h-9.6l-2.9-7h-16l-2.7,7h-9.4l14.4-35.4h10.3l15.9,35.4ZM29.1,26l-5.2,13.8h11l-5.8-13.8Z"/>
            <path class="st0" d="M84.7,17.6h7.7v35.4h-8.9v-22.1l-9.6,11.1h-1.4l-9.6-11.1v22.1h-8.9V17.6h7.7l11.5,13.1,11.5-13.1Z"/>
            <path class="st0" d="M115,17.6c13,0,19.7,8,19.7,17.7s-6.5,17.6-20.7,17.6h-14.8V17.6h15.8ZM108.2,46.5h5.8c9,0,11.6-6,11.6-11.2s-3.3-11.2-11.7-11.2h-5.7v22.4Z"/>
          </g>
          <g>
            <path class="st0" d="M170.9,26h-18.4l-11.2-11.1h40.8v40.5l-11.2-11.1v-18.2Z"/>
            <path class="st0" d="M168.6,44.2l-11.5,11.5h-16.2v-16l11.6-11.4v16h16.2Z"/>
          </g>
        </g>
      </g>
      <g id="Group-4">
        <path id="Vector" class="st0" d="M70.4,70.7h25v5l-17.4,14.8h17.4v5h-25v-5l17.4-14.8h-17.4v-5Z"/>
        <path id="Vector-2" class="st0" d="M59.1,70.7h6.2l-10.9,14.9v9.9h-5v-9.9l-10.8-14.9h6.2l7.1,9.8,7.2-9.8Z"/>
        <g id="Group-5">
          <path id="Vector-3" class="st0" d="M102.3,70.7h25v5h-25v-5Z"/>
          <g id="Group-6">
            <path id="Vector-4" class="st0" d="M127.3,80.6v5h-20v5h20v5h-25v-14.9h25Z"/>
          </g>
        </g>
        <g id="Group-7">
          <path id="Vector-5" class="st0" d="M14.4,95.4h-5v-14.9h19.6c.2,0,.4-.2.4-.3,0,0,0,0,0,0v-4.3c0-.2-.2-.3-.3-.3,0,0,0,0,0,0H9.4v-5h20c2.7,0,5,2.2,5,5,0,0,0,0,0,0v5c0,2.7-2.2,5-5,5,0,0,0,0,0,0l5.8,9.9h-5.8l-5.8-9.9h-9.2v9.9Z"/>
        </g>
        <path id="Vector-6" class="st0" d="M159.9,70.7v24.8h-5l-15-17.2v17.2h-5v-24.8h5l15,17.2v-17.2h5Z"/>
      </g>
    </g>
    <g id="Group-8">
      <path id="Vector-7" class="st0" d="M197.7,95.4l-4-8.2h-12.5l-4,8.2h-3.1l12-24.8h2.8l12,24.8h-3.1ZM182.5,84.4h9.9l-5-10.3-4.9,10.3Z"/>
      <path id="Vector-8" class="st0" d="M204.2,70.7h2.8v24.8h-2.8v-24.8Z"/>
    </g>
  </g>
</svg>