<?xml version="1.0" encoding="UTF-8"?>
<svg id="Layer_1" xmlns="http://www.w3.org/2000/svg" version="1.1" viewBox="0 0 256 256">
  <!-- Generator: Adobe Illustrator 29.5.1, SVG Export Plug-In . SVG Version: 2.1.0 Build 141)  -->
  <defs>
    <style>
      .st0 {
        fill: #fff;
      }
    </style>
  </defs>
  <path class="st0" d="M107.3,179.7c-7.6,0-13.8,6.2-13.8,13.8s6.2,13.8,13.8,13.8,13.8-6.2,13.8-13.8-6.2-13.8-13.8-13.8ZM107.3,193.5s0,0,0,0h6.9s-6.9,0-6.9,0Z"/>
  <path class="st0" d="M183.2,179.7c-7.6,0-13.8,6.2-13.8,13.8s6.2,13.8,13.8,13.8,13.8-6.2,13.8-13.8-6.2-13.8-13.8-13.8ZM183.2,193.5s0,0,0,0h6.9s-6.9,0-6.9,0Z"/>
  <path class="st0" d="M209.2,85.7c-1.3-1.6-3.3-2.5-5.3-2.5h-111.6l-5.8-28.9c-.6-3.2-3.5-5.5-6.8-5.5h-27.6c-3.8,0-6.9,3.1-6.9,6.9s3.1,6.9,6.9,6.9h21.9l5.7,28.7c0,.2,0,.4.1.6l11.5,57.6c1.9,9.7,10.4,16.7,20.2,16.7s.3,0,.4,0h66.9c10.2.2,18.7-6.8,20.7-16.7l11-57.9c.4-2-.1-4.1-1.5-5.7ZM186.1,146.6c-.7,3.3-3.8,5.4-7,5.5h-67.3c-3.3,0-6.1-2.3-6.8-5.6l-9.9-49.6h100.5l-9.5,49.6Z"/>
</svg>