<?xml version="1.0" encoding="UTF-8"?>
<svg id="Layer_1" xmlns="http://www.w3.org/2000/svg" version="1.1" viewBox="0 0 64.8 64.8">
  <!-- Generator: Adobe Illustrator 29.5.1, SVG Export Plug-In . SVG Version: 2.1.0 Build 141)  -->
  <defs>
    <style>
      .st0 {
        stroke: #2facff;
      }

      .st0, .st1 {
        fill: none;
        stroke-linecap: round;
        stroke-linejoin: round;
        stroke-width: 2px;
      }

      .st1 {
        stroke: #888;
      }
    </style>
  </defs>
  <g id="Group_402">
    <path id="Vector" class="st1" d="M28.2,29.3c0-3.5-2.8-6.3-6.3-6.3h-.9c0-3.5,2.8-6.3,6.3-6.3,0,0,0,0,0,0,4,0,7.2,3.2,7.2,7.2v4.5"/>
    <path id="Vector-2" class="st1" d="M31.2,36.4c-3,1.7-4,5.6-2.3,8.6,0,0,0,0,0,0l.4.8c-3,1.7-6.8.7-8.6-2.3,0,0,0,0,0,0-2-3.4-.8-7.8,2.6-9.8,0,0,0,0,0,0l3.9-2.2"/>
    <path id="Vector-3" class="st1" d="M35.9,30.2c3,1.7,6.8.7,8.6-2.3l.4-.8c3,1.7,4,5.6,2.3,8.6,0,0,0,0,0,0-2,3.4-6.4,4.6-9.8,2.6,0,0,0,0,0,0l-3.9-2.2"/>
    <path id="Vector-4" class="st0" d="M36.2,32c0,2.5-2,4.5-4.5,4.5s-4.5-2-4.5-4.5,2-4.5,4.5-4.5h0c2.5,0,4.5,2,4.5,4.5Z"/>
    <path id="Vector-5" class="st1" d="M25.2,13.1c10.5-3.6,21.8,2,25.4,12.5,3.6,10.5-2,21.8-12.5,25.4-10.5,3.6-21.8-2-25.4-12.5-2.9-8.5.2-17.9,7.6-23"/>
  </g>
</svg>