<?xml version="1.0" encoding="UTF-8"?>
<svg id="Layer_1" xmlns="http://www.w3.org/2000/svg" version="1.1" viewBox="0 0 64.8 64.8">
  <!-- Generator: Adobe Illustrator 29.5.1, SVG Export Plug-In . SVG Version: 2.1.0 Build 141)  -->
  <defs>
    <style>
      .st0 {
        stroke: #888;
      }

      .st0, .st1 {
        fill: none;
        stroke-linecap: round;
        stroke-linejoin: round;
        stroke-width: 2px;
      }

      .st1 {
        stroke: #54a5db;
      }
    </style>
  </defs>
  <g id="Group_124">
    <path id="Vector" class="st1" d="M25.9,12.4v6.1"/>
    <path id="Vector-2" class="st1" d="M32.2,12.4v6.1"/>
    <path id="Vector-3" class="st1" d="M38.4,12.4v6.1"/>
    <path id="Vector-4" class="st1" d="M26.1,46.9v6.1"/>
    <path id="Vector-5" class="st1" d="M32.4,46.9v6.1"/>
    <path id="Vector-6" class="st1" d="M38.7,46.9v6.1"/>
    <path id="Vector-7" class="st1" d="M17.8,26.5h-6.2"/>
    <path id="Vector-8" class="st1" d="M17.8,32.7h-6.2"/>
    <path id="Vector-9" class="st1" d="M17.8,38.9h-6.2"/>
    <path id="Vector-10" class="st1" d="M52.8,26.5h-6.2"/>
    <path id="Vector-11" class="st1" d="M52.8,32.7h-6.2"/>
    <path id="Vector-12" class="st1" d="M52.8,38.9h-6.2"/>
    <path id="Vector-13" class="st0" d="M20.6,18.5h23.1c1.6,0,2.8,1.2,2.9,2.8v22.8c0,1.6-1.3,2.8-2.9,2.8h-23.1c-1.6,0-2.8-1.2-2.9-2.8v-22.8c0-1.6,1.3-2.8,2.9-2.8Z"/>
    <path id="Vector-14" class="st0" d="M39.9,35.9v1.5c0,.7-.3,1.5-.8,2-.5.5-1.3.8-2,.8h-9.7c-.8,0-1.5-.3-2-.8-.5-.5-.8-1.2-.8-2v-9.6c0-.7.3-1.5.8-2,.5-.5,1.3-.8,2-.8h9.7c.8,0,1.5.3,2,.8.5.5.8,1.2.8,2v1.5"/>
  </g>
</svg>