<?xml version="1.0" encoding="UTF-8"?>
<svg id="Layer_1" xmlns="http://www.w3.org/2000/svg" version="1.1" viewBox="0 0 64.8 64.8">
  <!-- Generator: Adobe Illustrator 29.5.1, SVG Export Plug-In . SVG Version: 2.1.0 Build 141)  -->
  <defs>
    <style>
      .st0 {
        stroke: #888;
      }

      .st0, .st1 {
        fill: none;
        stroke-linecap: round;
        stroke-linejoin: round;
        stroke-width: 2px;
      }

      .st1 {
        stroke: #54a5db;
      }

      .st2 {
        fill: #888;
      }
    </style>
  </defs>
  <g id="Group_124">
    <path id="Vector" class="st1" d="M-143.7,12.4v6.1"/>
    <path id="Vector-2" class="st1" d="M-137.4,12.4v6.1"/>
    <path id="Vector-3" class="st1" d="M-131.2,12.4v6.1"/>
    <path id="Vector-4" class="st1" d="M-143.5,46.9v6.1"/>
    <path id="Vector-5" class="st1" d="M-137.2,46.9v6.1"/>
    <path id="Vector-6" class="st1" d="M-130.9,46.9v6.1"/>
    <path id="Vector-7" class="st1" d="M-151.8,26.5h-6.2"/>
    <path id="Vector-8" class="st1" d="M-151.8,32.7h-6.2"/>
    <path id="Vector-9" class="st1" d="M-151.8,38.9h-6.2"/>
    <path id="Vector-10" class="st1" d="M-116.8,26.5h-6.2"/>
    <path id="Vector-11" class="st1" d="M-116.8,32.7h-6.2"/>
    <path id="Vector-12" class="st1" d="M-116.8,38.9h-6.2"/>
    <path id="Vector-13" class="st0" d="M-149,18.5h23.1c1.6,0,2.8,1.2,2.9,2.8v22.8c0,1.6-1.3,2.8-2.9,2.8h-23.1c-1.6,0-2.8-1.2-2.9-2.8v-22.8c0-1.6,1.3-2.8,2.9-2.8Z"/>
    <path id="Vector-14" class="st0" d="M-129.7,35.9v1.5c0,.7-.3,1.5-.8,2-.5.5-1.3.8-2,.8h-9.7c-.8,0-1.5-.3-2-.8-.5-.5-.8-1.2-.8-2v-9.6c0-.7.3-1.5.8-2,.5-.5,1.3-.8,2-.8h9.7c.8,0,1.5.3,2,.8.5.5.8,1.2.8,2v1.5"/>
  </g>
  <g id="Group_274">
    <path id="Vector1" data-name="Vector" class="st0" d="M-37.7,23.7v26.6c0,1.3-1.1,2.4-2.4,2.4h-24.5c-1.3,0-2.4-1.1-2.4-2.4h0V14.6c0-1.3,1.1-2.4,2.4-2.4h0s24.5,0,24.5,0c1.3,0,2.4,1.1,2.4,2.4v3.5"/>
    <path id="Vector-21" data-name="Vector-2" class="st1" d="M-48.3,31.1c0,2.3-1.8,4.1-4.1,4.1s-4.1-1.8-4.1-4.1,1.8-4.1,4.1-4.1c2.3,0,4.1,1.8,4.1,4.1h0Z"/>
    <path id="Vector-31" data-name="Vector-3" class="st0" d="M-41.2,31.1c0,6.2-5,11.2-11.2,11.2s-11.2-5-11.2-11.2,5-11.2,11.2-11.2c6.2,0,11.2,5,11.2,11.2h0Z"/>
    <circle id="Ellipse" class="st2" cx="-63.3" cy="48.8" r=".8"/>
    <circle id="Ellipse-2" class="st2" cx="-63.3" cy="15.9" r=".8"/>
    <circle id="Ellipse-3" class="st2" cx="-52.4" cy="31.1" r=".8"/>
    <circle id="Ellipse-4" class="st2" cx="-41.7" cy="15.9" r=".8"/>
    <path id="Vector-41" data-name="Vector-4" class="st0" d="M-48.3,37.6l5.4,7.3"/>
  </g>
  <g id="Group_125">
    <path id="Vector2" data-name="Vector" class="st0" d="M51.6,16.3h.5c.7,0,1.4.3,1.9.8.5.5.8,1.2.8,1.9v22.5c0,.7-.3,1.4-.8,1.9-.5.5-1.2.8-1.9.8H12.7c-.7,0-1.4-.3-1.9-.8-.5-.5-.8-1.2-.8-1.9v-22.5c0-.7.3-1.4.8-1.9.5-.5,1.2-.8,1.9-.8h12.2c.7,0,1.4.3,1.9.8l.6.6c.5.5,1.2.8,1.9.8h6.3c.7,0,1.4-.3,1.9-.8l.6-.6c.5-.5,1.2-.8,1.9-.8h5.3"/>
    <path id="Vector-22" data-name="Vector-2" class="st0" d="M15.4,44.2h21.3v1.6c0,.7-.3,1.4-.8,1.9-.5.5-1.2.8-1.9.8h-16c-.7,0-1.4-.3-1.9-.8-.5-.5-.8-1.2-.8-1.9v-1.6Z"/>
    <path id="Vector-32" data-name="Vector-3" class="st1" d="M21.8,30.3s1.5-4.7,5.3-5.3"/>
    <path id="Vector-42" data-name="Vector-4" class="st1" d="M21.8,30.3s-1.5,4.7-5.3,5.3"/>
    <path id="Vector-51" data-name="Vector-5" class="st1" d="M21.8,30.3s4.7,1.6,5.3,5.3"/>
    <path id="Vector-61" data-name="Vector-6" class="st1" d="M21.8,30.3s-4.7-1.6-5.3-5.3"/>
    <path id="Vector-71" data-name="Vector-7" class="st0" d="M29.2,30.3c0,4.1-3.4,7.4-7.5,7.4-4.1,0-7.4-3.4-7.4-7.5,0-4.1,3.4-7.4,7.5-7.4,4.1,0,7.5,3.4,7.4,7.5Z"/>
    <path id="Vector-81" data-name="Vector-8" class="st1" d="M43,30.3s4.4-2.2,7.5,0"/>
    <path id="Vector-91" data-name="Vector-9" class="st1" d="M43,30.3s-4.4,2.2-7.5,0"/>
    <path id="Vector-101" data-name="Vector-10" class="st1" d="M43,30.3s2.2,4.4,0,7.5"/>
    <path id="Vector-111" data-name="Vector-11" class="st1" d="M43,30.3s-2.2-4.4,0-7.5"/>
    <path id="Vector-121" data-name="Vector-12" class="st0" d="M50.5,30.3c0,4.1-3.4,7.4-7.5,7.4-4.1,0-7.4-3.4-7.4-7.5,0-4.1,3.4-7.4,7.5-7.4,4.1,0,7.5,3.4,7.4,7.5Z"/>
    <path id="Vector-131" data-name="Vector-13" class="st0" d="M20.7,44.2v4.3"/>
  </g>
</svg>