<?xml version="1.0" encoding="UTF-8"?>
<svg id="Layer_1" xmlns="http://www.w3.org/2000/svg" version="1.1" viewBox="0 0 24 24">
  <!-- Generator: Adobe Illustrator 29.5.1, SVG Export Plug-In . SVG Version: 2.1.0 Build 141)  -->
  <defs>
    <style>
      .st0 {
        fill: #fff;
      }
    </style>
  </defs>
  <path class="st0" d="M19.6,21l-6.3-6.3c-.5.4-1.1.7-1.7,1s-1.3.4-2.1.4c-1.8,0-3.4-.6-4.6-1.9s-1.9-2.8-1.9-4.6.6-3.4,1.9-4.6,2.8-1.9,4.6-1.9,3.4.6,4.6,1.9,1.9,2.8,1.9,4.6-.1,1.4-.4,2.1-.6,1.2-1,1.7l6.3,6.3-1.4,1.4ZM9.5,14c1.3,0,2.3-.4,3.2-1.3s1.3-1.9,1.3-3.2-.4-2.3-1.3-3.2-1.9-1.3-3.2-1.3-2.3.4-3.2,1.3-1.3,1.9-1.3,3.2.4,2.3,1.3,3.2,1.9,1.3,3.2,1.3Z"/>
</svg>