<?xml version="1.0" encoding="UTF-8"?>
<svg id="Layer_1" xmlns="http://www.w3.org/2000/svg" version="1.1" viewBox="0 0 64.8 64.8">
  <!-- Generator: Adobe Illustrator 29.5.1, SVG Export Plug-In . SVG Version: 2.1.0 Build 141)  -->
  <defs>
    <style>
      .st0 {
        stroke: #2facff;
      }

      .st0, .st1 {
        fill: none;
        stroke-linecap: round;
        stroke-linejoin: round;
        stroke-width: 2px;
      }

      .st1 {
        stroke: #888;
      }
    </style>
  </defs>
  <g id="Group_126">
    <path id="Vector" class="st1" d="M28.7,52.3h-14.4c-.8,0-1.5-.3-2-.8-.5-.5-.8-1.2-.8-2V14.5c0-.7.3-1.5.8-2,.5-.5,1.3-.8,2-.8h35.5c.8,0,1.5.3,2,.8.5.5.8,1.2.8,2v34.9c0,.7-.3,1.5-.8,2-.5.5-1.3.8-2,.8h-14.5"/>
    <path id="Vector-2" class="st0" d="M22.5,41.4l18.3-18"/>
    <path id="Vector-3" class="st0" d="M30.8,24l8.9-1.1c.2,0,.4,0,.6,0,.2,0,.4.2.5.3.2.2.3.3.3.5,0,.2,0,.4,0,.6l-1.1,8.7"/>
  </g>
</svg>