<?xml version="1.0" encoding="UTF-8"?>
<svg id="Layer_1" xmlns="http://www.w3.org/2000/svg" version="1.1" viewBox="0 0 64.8 64.8">
  <!-- Generator: Adobe Illustrator 29.5.1, SVG Export Plug-In . SVG Version: 2.1.0 Build 141)  -->
  <defs>
    <style>
      .st0 {
        stroke: #2facff;
      }

      .st0, .st1 {
        fill: none;
        stroke-linecap: round;
        stroke-linejoin: round;
        stroke-width: 2px;
      }

      .st1 {
        stroke: #888;
      }

      .st2 {
        fill: #888;
      }
    </style>
  </defs>
  <g id="Group_274">
    <path id="Vector" class="st1" d="M46.7,23.3v26.6c0,1.3-1.1,2.4-2.4,2.4h-24.5c-1.3,0-2.4-1.1-2.4-2.4h0V14.2c0-1.3,1.1-2.4,2.4-2.4h0s24.5,0,24.5,0c1.3,0,2.4,1.1,2.4,2.4v3.5"/>
    <path id="Vector-2" class="st0" d="M36.1,30.7c0,2.3-1.8,4.1-4.1,4.1s-4.1-1.8-4.1-4.1,1.8-4.1,4.1-4.1c2.3,0,4.1,1.8,4.1,4.1h0Z"/>
    <path id="Vector-3" class="st1" d="M43.2,30.7c0,6.2-5,11.2-11.2,11.2s-11.2-5-11.2-11.2,5-11.2,11.2-11.2c6.2,0,11.2,5,11.2,11.2h0Z"/>
    <circle id="Ellipse" class="st2" cx="21.1" cy="48.4" r=".8"/>
    <circle id="Ellipse-2" class="st2" cx="21.1" cy="15.5" r=".8"/>
    <circle id="Ellipse-3" class="st2" cx="32" cy="30.7" r=".8"/>
    <circle id="Ellipse-4" class="st2" cx="42.7" cy="15.5" r=".8"/>
    <path id="Vector-4" class="st1" d="M36.1,37.2l5.4,7.3"/>
  </g>
</svg>